<?xml version="1.0" encoding="UTF-8"?> <svg xmlns="http://www.w3.org/2000/svg" xmlns:xlink="http://www.w3.org/1999/xlink" id="Layer_1" data-name="Layer 1" viewBox="0 0 474 105.91"><defs><style>.cls-1{fill:none;}.cls-2{opacity:0.54;}.cls-3{clip-path:url(#clip-path);}.cls-4{opacity:0.5;}.cls-5{clip-path:url(#clip-path-2);}.cls-6{opacity:0.73;}.cls-7{fill:#e2e2e2;}.cls-8{clip-path:url(#clip-path-3);}.cls-9{fill:url(#linear-gradient);}.cls-10{fill:url(#linear-gradient-2);}.cls-11{fill:#fff;}</style><clipPath id="clip-path"><rect class="cls-1" x="1580.82" y="272.61" width="970.8" height="814.19"></rect></clipPath><clipPath id="clip-path-2"><rect class="cls-1" x="1721.8" y="-210.52" width="1809.68" height="1300.42" transform="translate(5253.29 879.38) rotate(180)"></rect></clipPath><clipPath id="clip-path-3"><rect class="cls-1" x="1523.21" y="270.84" width="1264.73" height="814.44"></rect></clipPath><linearGradient id="linear-gradient" x1="7735.86" y1="-418.46" x2="7424.85" y2="67.01" gradientTransform="translate(-6377.98)" gradientUnits="userSpaceOnUse"><stop offset="0" stop-color="#8062f7"></stop><stop offset="0.23" stop-color="#539be7"></stop><stop offset="0.41" stop-color="#37bedd"></stop><stop offset="0.5" stop-color="#2cccd9"></stop><stop offset="1" stop-color="#8be9ae"></stop></linearGradient><linearGradient id="linear-gradient-2" x1="8285.34" y1="-70.73" x2="7865.56" y2="827.61" xlink:href="#linear-gradient"></linearGradient></defs><title>logo-Planium</title><g class="cls-2"><g class="cls-3"><g class="cls-4"><g class="cls-5"><g class="cls-6"><path class="cls-7" d="M1051.5,94.44c205.6,0,372.88,167.27,372.88,372.88v86.34h80.33c253.21,0,459.22,206,459.22,459.22,0,228.31-185.75,414.06-414,414.06h-127.5v370.42a88.38,88.38,0,0,1-88.27,88.27H925.91c-205.6,0-372.88-167.29-372.88-372.89V1426.4H473c-250.15,0-454.25-201-459.16-450C9.23,743.64,204.42,553.12,437.18,553.12H555V182.71A88.29,88.29,0,0,1,643.3,94.44h408.2m0-.25H643.3a88.62,88.62,0,0,0-88.52,88.52V552.88H437.18a422.36,422.36,0,0,0-167.84,34.59,428.1,428.1,0,0,0-137.17,94A416.26,416.26,0,0,0,43.93,814.7,400.79,400.79,0,0,0,13.57,976.37,459.48,459.48,0,0,0,473,1426.64h79.81v86.1c0,205.75,167.39,373.14,373.13,373.14h408.2a88.62,88.62,0,0,0,88.52-88.52V1427.18h127.25c228.44,0,414.3-185.85,414.3-414.3,0-253.35-206.12-459.46-459.47-459.46h-80.09v-86.1c0-205.74-167.38-373.13-373.12-373.13Z"></path><path class="cls-7" d="M1053.05,72.28c210.69,0,382.11,171.41,382.11,382.1v88.49h82.31c259.48,0,470.59,211.1,470.59,470.57,0,234-190.35,424.31-424.3,424.31H1433.11v379.59a90.57,90.57,0,0,1-90.46,90.45H924.35c-210.69,0-382.1-171.42-382.1-382.11v-88.49H460.2c-256.33,0-465.48-206-470.51-461.16C-15,737.54,185,542.31,423.53,542.31H544.29V162.73a90.46,90.46,0,0,1,90.46-90.45h418.3m0-.25H634.75a90.8,90.8,0,0,0-90.7,90.7V542.06H423.53a432.93,432.93,0,0,0-172,35.45A441.35,441.35,0,0,0,111,673.84,426.37,426.37,0,0,0,20.56,810.36,410.79,410.79,0,0,0-10.56,976a469.5,469.5,0,0,0,141.09,326.43,469.43,469.43,0,0,0,329.67,135H542v88.24C542,1736.51,713.52,1908,924.35,1908h418.3a90.81,90.81,0,0,0,90.71-90.7V1438h130.4c234.1,0,424.54-190.45,424.54-424.55,0-259.61-211.21-470.82-470.83-470.82H1435.4V454.38C1435.4,243.55,1263.88,72,1053.05,72Z"></path><path class="cls-7" d="M1054.6,50.12c215.78,0,391.33,175.55,391.33,391.33v90.62h84.31c265.74,0,482,216.2,482,481.94,0,239.61-195,434.55-434.54,434.55H1443.84v388.75A92.75,92.75,0,0,1,1351.2,1930H922.79c-215.77,0-391.33-175.56-391.33-391.34V1448h-84c-262.52,0-476.73-211-481.88-472.3-4.81-244.25,200-444.19,444.32-444.19H533.56V142.76A92.64,92.64,0,0,1,626.2,50.12h428.4m0-.25H626.2a93,93,0,0,0-92.89,92.89V531.25H409.88a443.35,443.35,0,0,0-176.14,36.31,451.91,451.91,0,0,0-144,98.65A437,437,0,0,0-2.82,806,420.63,420.63,0,0,0-34.68,975.7,480.79,480.79,0,0,0,109.81,1310a480.68,480.68,0,0,0,337.63,138.23h83.78v90.37c0,215.92,175.66,391.59,391.57,391.59H1351.2a93,93,0,0,0,92.88-92.89v-388.5h133.57c239.74,0,434.78-195,434.78-434.8,0-265.88-216.31-482.19-482.19-482.19h-84.06V441.45c0-215.92-175.66-391.58-391.58-391.58Z"></path><path class="cls-7" d="M1056.15,28c220.87,0,400.56,179.69,400.56,400.56v92.75H1543c272,0,493.31,221.3,493.31,493.3,0,245.26-199.54,444.8-444.78,444.8h-137v397.92a94.94,94.94,0,0,1-94.83,94.82H921.24c-220.87,0-400.56-179.7-400.56-400.57v-92.75h-86c-268.71,0-488-216-493.24-483.43-4.92-250,204.76-454.67,454.8-454.67H522.82V122.78A94.83,94.83,0,0,1,617.65,28h438.5m0-.25H617.65a95.18,95.18,0,0,0-95.07,95.07V520.44H396.23A453.9,453.9,0,0,0,215.94,557.6a462.67,462.67,0,0,0-147.35,101A447,447,0,0,0-26.19,801.69,430.54,430.54,0,0,0-58.81,975.36a492.14,492.14,0,0,0,147.9,342.19A492,492,0,0,0,434.67,1459h85.76v92.51c0,221,179.8,400.82,400.81,400.82h438.5a95.18,95.18,0,0,0,95.07-95.07V1459.62h136.72c245.39,0,445-199.65,445-445C2036.56,742.43,1815.15,521,1543,521h-86V428.52c0-221-179.8-400.81-400.8-400.81Z"></path><path class="cls-7" d="M1057.7,5.8c226,0,409.79,183.83,409.79,409.78v94.89h88.28c278.27,0,504.67,226.4,504.67,504.67,0,250.9-204.14,455-455,455H1465.29v407.08a97.13,97.13,0,0,1-97,97H919.68c-225.95,0-409.78-183.84-409.78-409.79v-94.89h-88c-274.9,0-499.2-220.93-504.6-494.57-5-255.77,209.47-465.14,465.27-465.14H512.09V102.81a97,97,0,0,1,97-97h448.6m0-.25H609.1a97.37,97.37,0,0,0-97.26,97.26V509.63H382.58a464.15,464.15,0,0,0-184.44,38A473,473,0,0,0,47.4,651a457.46,457.46,0,0,0-97,146.4A440.66,440.66,0,0,0-82.94,975,503.45,503.45,0,0,0,68.37,1325.09a503.3,503.3,0,0,0,353.54,144.74h87.74v94.65c0,226.09,183.94,410,410,410h448.6a97.37,97.37,0,0,0,97.26-97.26V1470.43h139.87c251,0,455.28-204.24,455.28-455.29,0-278.41-226.51-504.91-504.92-504.91h-88V415.58c0-226.09-183.94-410-410-410Z"></path></g></g></g></g></g><g class="cls-8"><path class="cls-9" d="M1321.31,906v-283a178.57,178.57,0,0,1-155.27.3V857.9H617.35c-221.74,0-402.14-180.39-402.14-402.13,0-191.53,155.79-347.31,347.31-347.31h310V-448.29h447.35c163.95,0,297.33,133.38,297.33,297.33h155.27c0-249.56-203-452.61-452.6-452.61H824.42A107.29,107.29,0,0,0,717.27-496.42V-46.81H562.52c-277.1,0-502.58,225.47-502.58,502.58,0,307.35,250.06,557.4,557.41,557.4h596.81A107.28,107.28,0,0,0,1321.31,906Z"></path><path class="cls-10" d="M1789.37-125l-705.49,15.23a132,132,0,0,0-132,132V514c0,1.37.34,2.65.4,4,2.14,50.93,43.77,91.63,95.22,91.63A95.63,95.63,0,0,0,1143.15,514V81.5H1819c275.36,0,498.94,225.78,495.3,502-3.1,235.1-201.48,421.15-436.59,421.15H1637.06a132,132,0,0,0-132,132v553.75h-551c-201.94,0-366.23-164.29-366.23-366.23H396.58c0,307.38,250.09,557.47,557.48,557.47h610.27a132,132,0,0,0,132-132V1195.84l146.58-15.23c348,0,639.79-284.82,632.95-632.77C2468.49,175.57,2163.35-125,1789.37-125Z"></path></g><path class="cls-11" d="M61.28,71.75V59.16a8,8,0,0,1-3.47.8,8.07,8.07,0,0,1-3.44-.78V69.61H30A17.9,17.9,0,0,1,12.08,51.72,15.46,15.46,0,0,1,27.53,36.28H41.32V11.51H61.21A13.25,13.25,0,0,1,74.44,24.74h6.9A20.15,20.15,0,0,0,61.21,4.61h-22a4.77,4.77,0,0,0-4.77,4.76v20H27.53A22.38,22.38,0,0,0,5.17,51.72,24.83,24.83,0,0,0,30,76.52H56.51A4.78,4.78,0,0,0,61.28,71.75Z"></path><path class="cls-11" d="M85.67,29.4H59.12a4.76,4.76,0,0,0-4.76,4.76V51.92s0,.1,0,.15a3.45,3.45,0,0,0,6.89-.15V36.31H85.67a17.9,17.9,0,0,1,17.88,18.12A15.64,15.64,0,0,1,87.79,69.64H79.1a4.76,4.76,0,0,0-4.77,4.77v20H54.43A13.23,13.23,0,0,1,41.21,81.18H34.3a20.15,20.15,0,0,0,20.13,20.13h22a4.78,4.78,0,0,0,4.77-4.77v-20H87.6c12.56,0,23.1-10.28,22.85-22.85A24.81,24.81,0,0,0,85.67,29.4Z"></path><path class="cls-11" d="M161.53,33.51,149,33.45h0a3.42,3.42,0,0,0-3.46,3.45L145.39,69a3.39,3.39,0,0,0,3.45,3.42h0a3.36,3.36,0,0,0,3.4-3.38l.05-8.09,8.29,0h.11a18.45,18.45,0,0,0,11.36-3.45,12.62,12.62,0,0,0,4.79-10.28v-.12C176.89,38.89,170.88,33.55,161.53,33.51Zm8.34,13.84c0,4.45-3.62,7.43-9,7.43h-.06l-8.52,0,.07-15.05,8.52,0c5.71,0,9,2.76,9,7.51Z"></path><path class="cls-11" d="M218,66.15l-18.69-.09V65.9l.15-29.15a3.4,3.4,0,0,0-3.39-3.42h0a3.5,3.5,0,0,0-2.45,1,3.43,3.43,0,0,0-1,2.41l-.15,32.07a3.43,3.43,0,0,0,1,2.47,3.51,3.51,0,0,0,2.46,1l22.09.1h0a3.09,3.09,0,0,0,2.19-.9,3.06,3.06,0,0,0,.92-2.2,3.12,3.12,0,0,0-.9-2.2A3.06,3.06,0,0,0,218,66.15Z"></path><path class="cls-11" d="M320.61,33.32h0a3.35,3.35,0,0,0-3.34,3.33l-.12,23.78-.28-.34L296.51,35.83c-1-1.27-2-2.06-3.61-2.06h-.76a3.48,3.48,0,0,0-2.46,1,3.42,3.42,0,0,0-1,2.44l-.16,32.06a3.28,3.28,0,0,0,1,2.37,3.4,3.4,0,0,0,2.41,1h0a3.35,3.35,0,0,0,3.35-3.33l.12-24.15,21.2,25.36a4.39,4.39,0,0,0,3.6,2.12h.31a3.35,3.35,0,0,0,3.35-3.39L324,36.68a3.36,3.36,0,0,0-1-2.37A3.43,3.43,0,0,0,320.61,33.32Z"></path><path class="cls-11" d="M349,33.29h0a3.42,3.42,0,0,0-2.45,1,3.35,3.35,0,0,0-1,2.4l-.16,32.53a3.39,3.39,0,0,0,1,2.42,3.49,3.49,0,0,0,2.46,1h0a3.38,3.38,0,0,0,3.4-3.39l.16-32.52a3.43,3.43,0,0,0-1-2.42A3.38,3.38,0,0,0,349,33.29Z"></path><path class="cls-11" d="M404.67,33.27h0a3.5,3.5,0,0,0-2.45,1,3.36,3.36,0,0,0-1,2.41l-.1,18.17c0,7.38-3.73,11.45-10.42,11.45h-.08a9.91,9.91,0,0,1-7.69-3.06c-1.85-2-2.78-5-2.76-8.78l.09-17.88a3.37,3.37,0,0,0-3.39-3.42h0a3.39,3.39,0,0,0-3.46,3.39l-.1,18.17c0,5.75,1.53,10.25,4.61,13.35s7.29,4.54,12.56,4.57h.13c11,0,17.33-6.6,17.39-18.11l.09-17.82a3.38,3.38,0,0,0-3.39-3.42Z"></path><path class="cls-11" d="M467.84,34.42a3.46,3.46,0,0,0-2.46-1h-.78a3.46,3.46,0,0,0-3.12,1.78l-12.68,15-.13-.17-12.3-14.92a3.61,3.61,0,0,0-3.19-1.88h-.78a3.43,3.43,0,0,0-3.46,3.45l-.16,32.57a3.28,3.28,0,0,0,3.33,3.36h0a3.34,3.34,0,0,0,3.4-3.33l.11-23.2,10,10.75c.93.93,1.52,1.84,3.05,1.84s2.07-.72,3.09-1.71L461.92,46.1l-.12,23.25a3.45,3.45,0,0,0,3.39,3.42h0a3.4,3.4,0,0,0,3.46-3.39l.16-32.51A3.5,3.5,0,0,0,467.84,34.42Z"></path><path class="cls-11" d="M257.56,36.12a4.28,4.28,0,0,0-4.11-2.84h-.38a4.38,4.38,0,0,0-4.16,2.81l-14.48,31.8a3.54,3.54,0,0,0-.46,1.56,3.14,3.14,0,0,0,3.16,3.19h0a3.3,3.3,0,0,0,3.18-2.16l1.28-2.9h22.7l1.11,2.6a3.57,3.57,0,0,0,3.35,2.43h0A3.22,3.22,0,0,0,272,69.33a3,3,0,0,0-.38-1.44Zm-13.21,25.2,8.77-19.91,8.51,19.91Z"></path></svg> 